{"title":"Desi Indian Cute Girl Sex","uid":6450461,"size":157404052,"categoryP":"porn","categoryS":"movie_clips","magnet":"?xt=urn:btih:b52ef39d745f6efd85601467f2e80162fd9bd652&amp;dn=Desi+Indian+Cute+Girl+Sex&amp;tr=udp%3A%2F%2Ftracker.openbittorrent.com%3A80&amp;tr=udp%3A%2F%2Fopen.demonii.com%3A1337&amp;tr=udp%3A%2F%2Ftracker.coppersurfer.tk%3A6969&amp;tr=udp%3A%2F%2Fexodus.desync.com%3A6969","seeders":0,"leechers":1,"uploader":"Robin5555","files":2,"time":1307408315,"description":"------------------------------:TPB IS BENEDICTION TO ME :--------------------------\n\n\nScreen Link :---\n &lt;a href=&quot;\nhttp://www.desiupload.com/show.php/872849_DesiIndianCuteGirlSexthumb.jpg.html&quot; rel=&quot;nofollow&quot; target=&quot;_NEW&quot;&gt;\nhttp://www.desiupload.com/show.php/872849_DesiIndianCuteGirlSexthumb.jpg.html&lt;/a&gt;\n\n\nGeneral Info :---\n\nFormat                           : Windows Media\nFile size                        : 150 MiB\nDuration                         : 19mn 53s\nOverall bit rate mode            : Constant\nOverall bit rate                 : 1 054 Kbps\nMaximum Overall bit rate         : 1 061 Kbps\nEncoded date                     : UTC 2004-06-03 07:09:41.760\nSfOriginalFPS                    : 300000\n\nVideo\nID                               : 2\nFormat                           : VC-1\nFormat profile                   : MP@LL\nCodec ID                         : WMV3\nCodec ID/Info                    : Windows Media Video 9\nCodec ID/Hint                    : WMV3\nDescription of the codec         : Windows Media Video 9\nDuration                         : 19mn 53s\nBit rate mode                    : Constant\nBit rate                         : 985 Kbps\nWidth                            : 320 pixels\nHeight                           : 240 pixels\nDisplay aspect ratio             : 4:3\nFrame rate                       : 30.000 fps\nBit depth                        : 8 bits\nScan type                        : Progressive\nCompression mode                 : Lossy\nBits/(Pixel*Frame)               : 0.427\nStream size                      : 140 MiB (93%)\n\nAudio\nID                               : 1\nFormat                           : WMA\nFormat version                   : Version 2\nCodec ID                         : 161\nCodec ID/Info                    : Windows Media Audio\nDescription of the codec         : Windows Media Audio 9 -  64 kbps, 44 kHz, stereo (A/V) 1-pass CBR\nDuration                         : 19mn 53s\nBit rate mode                    : Constant\nBit rate                         : 64.0 Kbps\nChannel(s)                       : 2 channels\nSampling rate                    : 44.1 KHz\nBit depth                        : 16 bits\nStream size                      : 9.11 MiB (6%)\n\n\n                                Dedicated To Ekarth\n\n\n------------------------------:TPB IS BENEDICTION TO ME :--------------------------\n\n\n\n","torrent":{"xt":"urn:btih:b52ef39d745f6efd85601467f2e80162fd9bd652","amp;dn":"Desi+Indian+Cute+Girl+Sex","amp;tr":["udp%3A%2F%2Ftracker.openbittorrent.com%3A80","udp%3A%2F%2Fopen.demonii.com%3A1337","udp%3A%2F%2Ftracker.coppersurfer.tk%3A6969","udp%3A%2F%2Fexodus.desync.com%3A6969"],"infoHash":"b52ef39d745f6efd85601467f2e80162fd9bd652","infoHashBuffer":{"type":"Buffer","data":[181,46,243,157,116,95,110,253,133,96,20,103,242,232,1,98,253,155,214,82]},"announce":[],"urlList":[]}}